<svg width="394" height="100" viewBox="0 0 394 100" fill="none" xmlns="http://www.w3.org/2000/svg">
<g clip-path="url(#clip0_1_21)">
<path d="M106.766 62.0781L100.512 64.8027L100.649 64.7439C104.59 61.7841 106.786 60.118 101.571 55.982L83.7494 45.8872L49.6752 26.6581L51.028 0C51.028 0 88.5331 19.7192 102.963 29.3239C117.373 38.9483 122.568 53.571 106.766 62.0781Z" fill="url(#paint0_linear_1_21)"/>
<path d="M70.8491 10.6632L69.2611 37.733L33.638 53.8063L15.7775 43.8879C10.5428 39.7912 12.7583 38.1054 16.6597 35.126L16.7578 35.0476L16.2088 35.2828L16.4441 35.1848L50.0282 20.2092L70.8491 10.6632Z" fill="url(#paint1_linear_1_21)"/>
<path d="M67.9083 72.8198L67.6142 79.3275L66.732 99.4975L46.3227 88.7362C35.0692 82.6401 21.9336 75.368 14.6208 70.5656C0.132367 61.0588 -5.1807 46.4361 10.5821 37.831L16.2088 35.2828L16.7578 35.0476L16.6597 35.126C12.7387 38.125 10.5428 39.7911 15.7775 43.8879L33.638 53.8062L48.1068 61.8233L67.9083 72.8198Z" fill="url(#paint2_linear_1_21)"/>
<path d="M100.649 64.7635L71.7901 77.4653L68.32 79.0138L67.6142 79.3275L46.3227 88.7362L48.1068 61.8429L83.769 45.9264L101.59 56.0016C106.805 60.118 104.61 61.8037 100.649 64.7635Z" fill="url(#paint3_linear_1_21)"/>
<path d="M165.641 80.5232C160.759 80.5232 156.564 79.4451 153.074 77.3085C149.604 75.1719 146.918 72.1925 145.016 68.429C143.154 64.6263 142.213 60.2552 142.213 55.3156C142.213 50.3564 143.173 45.9656 145.075 42.1629C146.977 38.3406 149.682 35.3612 153.153 33.2442C156.662 31.1077 160.799 30.0296 165.563 30.0296C169.523 30.0296 173.032 30.7548 176.091 32.2249C179.169 33.6755 181.62 35.714 183.443 38.3798C185.266 41.0064 186.305 44.0839 186.56 47.6122H175.542C175.091 45.26 174.032 43.2998 172.366 41.7121C170.719 40.1244 168.504 39.3207 165.72 39.3207C163.367 39.3207 161.289 39.948 159.505 41.2221C157.721 42.4766 156.329 44.2799 155.329 46.6321C154.349 48.9843 153.858 51.8069 153.858 55.1C153.858 58.4322 154.349 61.2941 155.329 63.705C156.309 66.0768 157.681 67.9194 159.426 69.2131C161.21 70.4872 163.289 71.1144 165.7 71.1144C167.406 71.1144 168.915 70.8008 170.249 70.1539C171.601 69.4875 172.738 68.5466 173.66 67.3117C174.581 66.0768 175.189 64.5871 175.542 62.823H186.56C186.286 66.2924 185.266 69.3503 183.502 72.0357C181.737 74.6819 179.345 76.7793 176.307 78.269C173.307 79.7783 169.739 80.5232 165.641 80.5232Z" fill="#FEFEFE"/>
<path d="M192.461 79.5627V30.6568H203.637V38.8111H204.146C205.028 35.9885 206.558 33.8127 208.734 32.2838C210.91 30.7352 213.42 29.9512 216.204 29.9512C216.831 29.9512 217.556 29.9904 218.341 30.0492C219.144 30.0884 219.811 30.1668 220.34 30.2648V40.8692C219.85 40.6928 219.086 40.5556 218.007 40.4184C216.968 40.2616 215.968 40.2028 214.988 40.2028C212.89 40.2028 211.008 40.6536 209.322 41.5749C207.675 42.4766 206.362 43.7115 205.401 45.2992C204.44 46.8869 203.97 48.7295 203.97 50.8072V79.5627H192.461Z" fill="#FEFEFE"/>
<path d="M244.024 80.5232C239.122 80.5232 234.888 79.5039 231.319 77.4654C227.771 75.4072 225.046 72.5062 223.144 68.7427C221.242 64.9596 220.281 60.51 220.281 55.394C220.281 50.3564 221.242 45.9461 223.144 42.1434C225.065 38.321 227.771 35.3416 231.221 33.2246C234.672 31.0881 238.75 30.01 243.416 30.01C246.435 30.01 249.278 30.5 251.944 31.4801C254.63 32.4406 257.022 33.9303 259.081 35.9297C261.159 37.9486 262.786 40.5164 263.982 43.6331C265.178 46.7301 265.766 50.4348 265.766 54.7079V58.2362H225.693V50.474H254.709C254.689 48.259 254.218 46.2989 253.277 44.5739C252.336 42.8294 251.042 41.4573 249.356 40.4576C247.709 39.4579 245.769 38.9679 243.573 38.9679C241.22 38.9679 239.142 39.5363 237.377 40.6928C235.593 41.8101 234.201 43.2998 233.201 45.1424C232.221 46.9653 231.731 48.9843 231.711 51.1601V57.9422C231.711 60.7844 232.241 63.2346 233.28 65.2732C234.319 67.2921 235.77 68.8407 237.632 69.9188C239.495 70.9772 241.691 71.5065 244.181 71.5065C245.867 71.5065 247.376 71.2713 248.729 70.8008C250.082 70.3108 251.258 69.6051 252.258 68.6642C253.258 67.7234 254.003 66.5669 254.513 65.1948L265.276 66.4101C264.59 69.2523 263.296 71.7417 261.394 73.8587C259.512 75.956 257.081 77.6026 254.14 78.759C251.199 79.9547 247.827 80.5232 244.024 80.5232Z" fill="#FEFEFE"/>
<path d="M285.999 80.5624C282.901 80.5624 280.117 80.0135 277.627 78.9159C275.157 77.7986 273.216 76.1324 271.765 73.9567C270.334 71.7613 269.628 69.0759 269.628 65.8612C269.628 63.0974 270.138 60.8236 271.158 59.0203C272.177 57.2169 273.569 55.7664 275.334 54.6883C277.098 53.6103 279.078 52.787 281.294 52.2381C283.529 51.6697 285.822 51.2581 288.195 51.0033C291.057 50.7092 293.39 50.4348 295.155 50.1996C296.939 49.9448 298.233 49.5527 299.036 49.0627C299.86 48.5335 300.272 47.7102 300.272 46.6125V46.4165C300.272 44.0251 299.566 42.1629 298.135 40.8496C296.703 39.5363 294.664 38.8699 291.998 38.8699C289.175 38.8699 286.94 39.4775 285.293 40.7124C283.666 41.9473 282.548 43.3978 281.98 45.0836L271.216 43.5547C272.059 40.5752 273.471 38.1054 275.412 36.1061C277.372 34.0871 279.745 32.5778 282.568 31.5781C285.391 30.5588 288.508 30.0492 291.92 30.0492C294.272 30.0492 296.625 30.3236 298.958 30.8725C301.291 31.4213 303.428 32.3426 305.349 33.6167C307.271 34.8712 308.82 36.5765 309.996 38.7523C311.192 40.9084 311.78 43.6331 311.78 46.8673V79.6019H300.703V72.8786H300.33C299.625 74.2311 298.644 75.5052 297.37 76.7009C296.115 77.877 294.527 78.8178 292.625 79.5431C290.763 80.2096 288.528 80.5624 285.999 80.5624ZM288.979 72.0945C291.292 72.0945 293.292 71.6437 294.998 70.7224C296.703 69.7815 297.997 68.5662 298.919 67.0373C299.86 65.5084 300.311 63.8423 300.311 62.0389V56.2565C299.958 56.5505 299.331 56.8249 298.468 57.0797C297.625 57.3346 296.664 57.5502 295.606 57.7462C294.547 57.9422 293.488 58.099 292.449 58.2558C291.41 58.4126 290.508 58.5302 289.744 58.6283C288.018 58.8635 286.489 59.2359 285.136 59.7651C283.783 60.2944 282.705 61.0392 281.921 61.9997C281.137 62.9406 280.745 64.1363 280.745 65.626C280.745 67.743 281.509 69.3503 283.058 70.4284C284.607 71.5457 286.587 72.0945 288.979 72.0945Z" fill="#FEFEFE"/>
<path d="M344.207 30.6568V39.5755H316.113V30.6568H344.207ZM323.033 18.9351H334.561V64.8615C334.561 66.41 334.797 67.6057 335.267 68.429C335.757 69.2327 336.385 69.7815 337.169 70.0755C337.953 70.3696 338.816 70.5264 339.777 70.5264C340.502 70.5264 341.149 70.4676 341.757 70.3696C342.364 70.2716 342.835 70.1735 343.149 70.0755L345.09 79.0923C344.482 79.3079 343.6 79.5431 342.443 79.7979C341.325 80.0527 339.933 80.2095 338.306 80.2487C335.424 80.3272 332.817 79.8959 330.503 78.9354C328.19 77.9554 326.347 76.446 324.994 74.4075C323.661 72.3689 322.994 69.8207 323.014 66.7629V18.9351H323.033Z" fill="#FEFEFE"/>
<path d="M371.361 80.5232C366.46 80.5232 362.225 79.5039 358.657 77.4654C355.108 75.4072 352.383 72.5062 350.481 68.7427C348.579 64.9596 347.619 60.51 347.619 55.394C347.619 50.3564 348.579 45.9461 350.481 42.1434C352.422 38.321 355.108 35.3416 358.559 33.2246C362.009 31.0881 366.087 30.01 370.753 30.01C373.772 30.01 376.615 30.5 379.281 31.4801C381.967 32.4406 384.359 33.9303 386.418 35.9297C388.496 37.9486 390.123 40.5164 391.319 43.6331C392.515 46.7301 393.103 50.4348 393.103 54.7079V58.2362H353.03V50.474H382.046C382.026 48.259 381.556 46.2989 380.615 44.5739C379.674 42.8294 378.38 41.4573 376.694 40.4576C375.047 39.4579 373.106 38.9679 370.91 38.9679C368.557 38.9679 366.479 39.5363 364.715 40.6928C362.931 41.8101 361.539 43.2998 360.539 45.1424C359.558 46.9653 359.068 48.9843 359.049 51.1601V57.9422C359.049 60.7844 359.578 63.2346 360.617 65.2732C361.656 67.2921 363.107 68.8407 364.97 69.9188C366.832 70.9772 369.028 71.5065 371.518 71.5065C373.184 71.5065 374.713 71.2713 376.066 70.8008C377.419 70.3108 378.595 69.6051 379.595 68.6642C380.595 67.7234 381.34 66.5669 381.85 65.1948L392.613 66.4101C391.927 69.2523 390.633 71.7417 388.731 73.8587C386.849 75.956 384.418 77.6026 381.477 78.759C378.536 79.9547 375.164 80.5232 371.361 80.5232Z" fill="#FEFEFE"/>
</g>
<defs>
<linearGradient id="paint0_linear_1_21" x1="70.1946" y1="0.0997525" x2="94.0121" y2="67.4233" gradientUnits="userSpaceOnUse">
<stop offset="0.4792" stop-color="white"/>
<stop offset="1" stop-color="#DFE0EC"/>
</linearGradient>
<linearGradient id="paint1_linear_1_21" x1="76.1249" y1="11.0158" x2="19.123" y2="54.5532" gradientUnits="userSpaceOnUse">
<stop offset="0.1094" stop-color="#ECEDF3"/>
<stop offset="1" stop-color="#D8D9E1"/>
</linearGradient>
<linearGradient id="paint2_linear_1_21" x1="23.8601" y1="39.751" x2="56.7243" y2="113.54" gradientUnits="userSpaceOnUse">
<stop offset="0.1927" stop-color="white"/>
<stop offset="0.5781" stop-color="#DFE0EC"/>
<stop offset="1" stop-color="white"/>
</linearGradient>
<linearGradient id="paint3_linear_1_21" x1="38.8922" y1="79.4692" x2="109.373" y2="47.332" gradientUnits="userSpaceOnUse">
<stop stop-color="white"/>
<stop offset="0.2864" stop-color="#FAFBFB"/>
<stop offset="1" stop-color="#B6B7C7"/>
</linearGradient>
<clipPath id="clip0_1_21">
<rect width="394.01" height="99.4975" fill="white"/>
</clipPath>
</defs>
</svg>
