<svg width="395" height="100" viewBox="0 0 395 100" fill="none" xmlns="http://www.w3.org/2000/svg">
<g clip-path="url(#clip0_1_33)">
<path d="M106.284 62.3917L100 65.13L100.138 65.0709C104.098 62.0961 106.304 60.4216 101.064 56.2648L83.1757 46.119L48.9362 26.7928L50.2758 0C50.2758 0 87.9629 19.8188 102.463 29.472C116.962 39.145 122.163 53.8416 106.284 62.3917Z" fill="url(#paint0_linear_1_33)"/>
<path d="M70.193 10.7171L68.5973 37.9236L32.8014 54.078L14.8542 44.1095C9.59416 39.9921 11.8203 38.2979 15.7407 35.3034L15.8392 35.2246L15.2876 35.461L15.524 35.3625L49.2711 20.3113L70.193 10.7171Z" fill="url(#paint1_linear_1_33)"/>
<path d="M67.238 73.1875L66.9425 79.7281L66.0559 100L45.5477 89.1844C34.2396 83.0575 21.0402 75.7486 13.6919 70.922C-0.866827 61.3672 -6.20568 46.6706 9.63357 38.0221L15.2876 35.461L15.8392 35.2246L15.7407 35.3034C11.8006 38.3176 9.59417 39.9921 14.8542 44.1095L32.8014 54.078L47.3404 62.1355L67.238 73.1875Z" fill="url(#paint2_linear_1_33)"/>
<path d="M100.138 65.0906L71.1387 77.8566L67.6517 79.4129L66.9425 79.7281L45.5477 89.1844L47.3404 62.1552L83.1757 46.1584L101.084 56.2845C106.324 60.4216 104.117 62.1158 100.138 65.0906Z" fill="url(#paint3_linear_1_33)"/>
<path d="M165.445 80.9299C160.54 80.9299 156.324 79.8463 152.817 77.699C149.33 75.5516 146.631 72.5571 144.72 68.7746C142.849 64.9527 141.903 60.5595 141.903 55.595C141.903 50.6107 142.868 46.1978 144.779 42.3759C146.69 38.5343 149.409 35.5398 152.896 33.4121C156.422 31.2648 160.579 30.1812 165.366 30.1812C169.346 30.1812 172.872 30.9102 175.946 32.3877C179.039 33.8455 181.501 35.8944 183.333 38.5737C185.165 41.2136 186.21 44.3065 186.466 47.8526H175.394C174.941 45.4886 173.877 43.5185 172.203 41.9228C170.548 40.327 168.322 39.5193 165.524 39.5193C163.16 39.5193 161.072 40.1497 159.279 41.4303C157.486 42.6911 156.087 44.5035 155.083 46.8676C154.098 49.2317 153.605 52.0686 153.605 55.3783C153.605 58.7273 154.098 61.6036 155.083 64.0268C156.068 66.4106 157.447 68.2624 159.2 69.5626C160.993 70.8432 163.081 71.4736 165.504 71.4736C167.218 71.4736 168.735 71.1584 170.075 70.5083C171.434 69.8385 172.577 68.8928 173.503 67.6517C174.429 66.4106 175.039 64.9133 175.394 63.1403H186.466C186.19 66.6273 185.165 69.7006 183.392 72.3995C181.619 75.0591 179.216 77.1671 176.162 78.6643C173.148 80.1812 169.563 80.9299 165.445 80.9299Z" fill="#37394E"/>
<path d="M192.396 79.9645V30.8117H203.625V39.0071H204.137C205.024 36.1702 206.56 33.9835 208.747 32.4468C210.934 30.8905 213.455 30.1024 216.253 30.1024C216.883 30.1024 217.612 30.1418 218.4 30.201C219.208 30.2404 219.878 30.3192 220.41 30.4177V41.0757C219.917 40.8983 219.149 40.7604 218.065 40.6225C217.021 40.4649 216.017 40.4058 215.032 40.4058C212.924 40.4058 211.032 40.8589 209.338 41.7849C207.683 42.6911 206.363 43.9322 205.398 45.528C204.433 47.1237 203.96 48.9756 203.96 51.0638V79.9645H192.396Z" fill="#37394E"/>
<path d="M244.208 80.9299C239.283 80.9299 235.028 79.9054 231.442 77.8566C227.876 75.788 225.138 72.8723 223.227 69.0898C221.316 65.2876 220.351 60.8156 220.351 55.6738C220.351 50.6107 221.316 46.1781 223.227 42.3562C225.158 38.5146 227.876 35.5201 231.344 33.3924C234.811 31.2451 238.909 30.1615 243.597 30.1615C246.631 30.1615 249.488 30.6541 252.167 31.6391C254.866 32.6044 257.269 34.1017 259.338 36.1111C261.426 38.1403 263.061 40.721 264.263 43.8534C265.465 46.9661 266.056 50.6895 266.056 54.9842V58.5303H225.788V50.7289H254.945C254.925 48.5028 254.452 46.5327 253.507 44.7991C252.561 43.0457 251.261 41.6667 249.567 40.6619C247.912 39.6572 245.961 39.1647 243.755 39.1647C241.391 39.1647 239.303 39.736 237.51 40.8983C235.717 42.0213 234.318 43.5185 233.314 45.3704C232.329 47.2025 231.836 49.2317 231.816 51.4184V58.2348C231.816 61.0914 232.348 63.554 233.392 65.6028C234.437 67.632 235.894 69.1883 237.766 70.2719C239.638 71.3357 241.844 71.8676 244.346 71.8676C246.04 71.8676 247.557 71.6312 248.916 71.1584C250.276 70.6659 251.458 69.9567 252.463 69.011C253.467 68.0654 254.216 66.9031 254.728 65.524L265.544 66.7455C264.854 69.602 263.554 72.104 261.643 74.2317C259.752 76.3396 257.309 77.9945 254.354 79.1568C251.418 80.3585 248.03 80.9299 244.208 80.9299Z" fill="#37394E"/>
<path d="M286.387 80.9693C283.274 80.9693 280.477 80.4176 277.975 79.3144C275.493 78.1915 273.542 76.5169 272.084 74.3302C270.646 72.1237 269.937 69.4247 269.937 66.1938C269.937 63.4161 270.449 61.1308 271.474 59.3184C272.498 57.5059 273.897 56.0481 275.67 54.9645C277.443 53.881 279.433 53.0536 281.639 52.502C283.885 51.9307 286.19 51.5169 288.574 51.2608C291.45 50.9653 293.794 50.6895 295.587 50.4531C297.38 50.197 298.68 49.803 299.488 49.3105C300.315 48.7786 300.729 47.9511 300.729 46.8479V46.6509C300.729 44.2474 300.02 42.3759 298.582 41.0559C297.143 39.736 295.095 39.0662 292.415 39.0662C289.578 39.0662 287.333 39.6769 285.678 40.918C284.043 42.1592 282.92 43.617 282.348 45.3113L271.533 43.7746C272.38 40.7801 273.798 38.2979 275.749 36.2884C277.719 34.2593 280.102 32.7423 282.939 31.7376C285.776 30.7132 288.909 30.2009 292.336 30.2009C294.701 30.2009 297.065 30.4768 299.409 31.0284C301.753 31.58 303.901 32.5059 305.831 33.7864C307.782 35.0473 309.338 36.7612 310.5 38.948C311.702 41.115 312.293 43.8534 312.293 47.104V80.0039H301.162V73.2466H300.788C300.079 74.606 299.094 75.8865 297.813 77.0883C296.552 78.2703 294.957 79.2159 293.046 79.9448C291.174 80.6147 288.928 80.9693 286.387 80.9693ZM289.381 72.4586C291.706 72.4586 293.716 72.0055 295.429 71.0796C297.143 70.134 298.444 68.9125 299.37 67.3759C300.315 65.8392 300.768 64.1647 300.768 62.3522V56.5406C300.414 56.8361 299.783 57.1119 298.916 57.368C298.069 57.6241 297.104 57.8408 296.04 58.0378C294.976 58.2348 293.913 58.3924 292.868 58.55C291.824 58.7076 290.918 58.8258 290.15 58.9243C288.416 59.1608 286.879 59.5351 285.52 60.067C284.161 60.5989 283.077 61.3475 282.289 62.3128C281.501 63.2585 281.107 64.4602 281.107 65.9574C281.107 68.0851 281.875 69.7005 283.432 70.7841C284.988 71.907 286.978 72.4586 289.381 72.4586Z" fill="#37394E"/>
<path d="M344.878 30.8117V39.7754H316.647V30.8117H344.878ZM323.601 19.0307H335.185V65.1891C335.185 66.7455 335.422 67.9472 335.894 68.7746C336.387 69.5823 337.017 70.134 337.805 70.4295C338.593 70.725 339.46 70.8826 340.426 70.8826C341.154 70.8826 341.805 70.8235 342.415 70.725C343.026 70.6265 343.499 70.528 343.814 70.4295L345.764 79.4917C345.154 79.7084 344.267 79.9448 343.105 80.2009C341.982 80.4571 340.583 80.6147 338.948 80.6541C336.052 80.7329 333.432 80.2994 331.107 79.3341C328.782 78.3491 326.95 76.8322 325.571 74.7833C324.232 72.7344 323.562 70.1734 323.582 67.1001V19.0307H323.601Z" fill="#37394E"/>
<path d="M372.163 80.9299C367.238 80.9299 362.983 79.9054 359.397 77.8566C355.831 75.788 353.093 72.8723 351.182 69.0898C349.271 65.2876 348.306 60.8156 348.306 55.6738C348.306 50.6107 349.271 46.1781 351.182 42.3562C353.132 38.5146 355.831 35.5201 359.299 33.3924C362.766 31.2451 366.864 30.1615 371.552 30.1615C374.586 30.1615 377.443 30.6541 380.122 31.6391C382.821 32.6044 385.225 34.1017 387.293 36.1111C389.381 38.1403 391.017 40.721 392.218 43.8534C393.42 46.9661 394.011 50.6895 394.011 54.9842V58.5303H353.743V50.7289H382.9C382.88 48.5028 382.407 46.5327 381.462 44.7991C380.516 43.0457 379.216 41.6667 377.522 40.6619C375.867 39.6572 373.916 39.1647 371.71 39.1647C369.346 39.1647 367.258 39.736 365.485 40.8983C363.692 42.0213 362.293 43.5185 361.288 45.3704C360.303 47.2025 359.811 49.2317 359.791 51.4184V58.2348C359.791 61.0914 360.323 63.554 361.367 65.6028C362.411 67.632 363.869 69.1883 365.741 70.2719C367.612 71.3357 369.819 71.8676 372.321 71.8676C373.995 71.8676 375.532 71.6312 376.891 71.1584C378.251 70.6659 379.433 69.9567 380.437 69.011C381.442 68.0654 382.191 66.9031 382.703 65.524L393.518 66.7455C392.829 69.602 391.529 72.104 389.618 74.2317C387.727 76.3396 385.284 77.9945 382.329 79.1568C379.373 80.3585 375.985 80.9299 372.163 80.9299Z" fill="#37394E"/>
</g>
<defs>
<linearGradient id="paint0_linear_1_33" x1="69.5356" y1="0.100276" x2="93.4771" y2="67.761" gradientUnits="userSpaceOnUse">
<stop offset="0.0572917" stop-color="#6D7083"/>
<stop offset="0.875" stop-color="#2B2C34"/>
</linearGradient>
<linearGradient id="paint1_linear_1_33" x1="40.9825" y1="10.718" x2="40.9825" y2="54.0759" gradientUnits="userSpaceOnUse">
<stop stop-color="#888B9E"/>
<stop offset="1" stop-color="#32333E"/>
</linearGradient>
<linearGradient id="paint2_linear_1_33" x1="33.6217" y1="35.2154" x2="33.6217" y2="99.9917" gradientUnits="userSpaceOnUse">
<stop stop-color="#888B9E"/>
<stop offset="0.5781" stop-color="#32333E"/>
</linearGradient>
<linearGradient id="paint3_linear_1_33" x1="11.3489" y1="87.0224" x2="131.131" y2="43.2761" gradientUnits="userSpaceOnUse">
<stop offset="0.3073" stop-color="#888B9E"/>
<stop offset="0.4133" stop-color="#6D7083"/>
<stop offset="0.7051" stop-color="#37394E"/>
<stop offset="1" stop-color="#32333E"/>
</linearGradient>
<clipPath id="clip0_1_33">
<rect width="394.011" height="100" fill="white"/>
</clipPath>
</defs>
</svg>
