<svg width="384" height="100" viewBox="0 0 384 100" fill="none" xmlns="http://www.w3.org/2000/svg">
<path d="M61.8611 65.88L65.4156 0.183167H61.3569L11.8244 67.3474C8.37131 72.1835 5.12379 72.7299 0.862297 72.7299L0.251099 74.6452H21.1614L21.8684 72.7299C11.6188 72.7299 12.7314 71.9976 16.0803 67.3474L28.0592 50.9239H56.4786L55.4618 65.8884C55.1604 71.4568 53.938 72.7299 45.4122 72.7299L44.6996 74.6452H69.2602L70.1728 72.7299C62.6638 72.7299 61.5428 71.6371 61.8526 65.8884L61.8582 65.8828L61.8611 65.88ZM56.5828 48.0933H30.1942L58.4079 9.39903H59.1205L56.58 48.0876V48.0933H56.5828Z" fill="#18191B" stroke="#18191B" stroke-width="0.366156" stroke-miterlimit="10"/>
<path d="M161.033 15.2939C159.104 15.2939 157.927 16.9388 157.685 18.4823C157.197 21.5636 159.383 24.4168 158.47 30.1289C156.842 40.3474 145.728 57.2723 130.583 74.6365C135.174 56.6104 140.968 38.6997 142.441 29.467C143.934 19.4681 141.979 15.5812 137.614 15.5812C132.231 15.5812 125.178 38.1223 120.568 47.3495C120.568 47.3495 110.073 71.1186 106.428 71.1186C104.8 71.1186 104.398 70.0202 104.398 68.3725C104.398 66.9444 105.31 64.5278 105.817 62.8801C111.2 48.6986 119.725 31.2273 119.725 22.2171C119.725 18.0429 117.695 15.401 113.937 15.401C107.237 15.401 99.3221 24.0817 88.16 49.5802H87.3488L94.0495 29.5796C95.2634 25.842 96.2802 22.879 96.2802 20.5694C96.2802 17.9331 94.9621 15.6235 92.3201 15.6235C85.9293 15.6235 79.023 24.7436 74.8629 33.4243H76.9923C80.4454 26.8335 85.6223 19.6878 89.067 19.6878C89.9795 19.6878 90.5907 20.1244 90.5907 21.7777C90.5907 23.0959 89.4725 26.7236 88.56 29.5796L74.2461 74.6394H80.0342C94.9508 33.6496 106.223 20.4595 110.994 20.4595C112.718 20.4595 113.43 21.7777 113.43 24.5239C113.43 30.4584 106.119 46.9411 100.435 62.7675C99.5221 65.1869 98.6095 67.6035 98.6095 69.5836C98.6095 72.8818 100.032 75.3013 103.992 75.3013C110.89 75.3013 124.302 43.8344 124.302 43.8344C128.508 34.6692 133.761 20.637 135.876 20.3497C142.447 19.4428 131.226 50.1886 126.564 67.3529C124.463 75.1013 121.035 82.4526 116.278 88.9166C114.188 91.7586 112.338 93.6569 110.304 93.6569C107.256 93.6569 106.595 91.4572 103.347 91.4572C100.607 91.4572 98.0237 93.6569 97.5871 96.4031C97.2914 98.2677 98.4687 99.8112 101.508 99.8112C113.383 99.8112 125.55 86.5113 139.219 69.4766C152.496 52.9939 161.664 37.4942 163.537 25.7322C164.689 18.4795 163.678 15.2883 161.036 15.2883L161.033 15.2939Z" fill="#18191B" stroke="#18191B" stroke-width="0.366156" stroke-miterlimit="10"/>
<path d="M196.598 16.8939V22.4961H185.507V62.179C185.507 64.3646 185.802 66.0687 186.408 67.3051C187.005 68.5388 188.504 69.2204 190.895 69.3641C192.799 69.3641 194.694 69.2598 196.598 69.0486V74.6508C195.615 74.6508 194.624 74.6818 193.641 74.7522C192.658 74.8226 191.667 74.8564 190.684 74.8564C186.247 74.8564 183.146 73.9945 181.392 72.2708C179.629 70.547 178.789 67.3587 178.86 62.7085V22.4961H169.356V16.8939H178.86V0.521118H185.515V16.8939H196.607H196.601H196.598Z" fill="#18191B" stroke="#18191B" stroke-width="0.366156" stroke-miterlimit="10"/>
<path d="M208.532 0.521118V26.29H208.743C210.011 22.9777 212.261 20.3217 215.5 18.3163C218.742 16.3109 222.297 15.3054 226.167 15.3054C230.037 15.3054 233.155 15.8011 235.729 16.7841C238.3 17.7671 240.359 19.1641 241.908 20.9583C243.458 22.7524 244.55 24.9578 245.181 27.5631C245.818 30.1685 246.133 33.0949 246.133 36.3283V74.6395H239.478V37.3817C239.478 35.0609 239.267 32.8921 238.841 30.8867C238.416 28.8813 237.678 27.1378 236.622 25.6591C235.568 24.1804 234.14 23.0172 232.346 22.1722C230.552 21.33 228.316 20.9047 225.64 20.9047C222.964 20.9047 220.587 21.3807 218.508 22.3327C216.432 23.2847 214.669 24.5888 213.23 26.2422C211.782 27.8955 210.658 29.8699 209.847 32.157C209.036 34.4469 208.594 36.9283 208.529 39.604V74.6423H201.874V0.521118H208.529H208.532Z" fill="#18191B" stroke="#18191B" stroke-width="0.366156" stroke-miterlimit="10"/>
<path d="M261.231 16.8939V74.6451H254.575V16.8939H261.231ZM261.577 6.17394C261.577 4.14882 259.932 2.50111 257.907 2.50111C255.882 2.50111 254.234 4.14882 254.234 6.17394C254.234 8.19906 255.879 9.84676 257.907 9.84676C259.935 9.84676 261.577 8.19906 261.577 6.17394Z" fill="#18191B" stroke="#18191B" stroke-width="0.366156" stroke-miterlimit="10"/>
<path d="M276.332 16.894V26.2957H276.544C277.811 22.9834 280.062 20.3274 283.301 18.322C286.542 16.3166 290.097 15.311 293.967 15.311C297.837 15.311 300.958 15.8068 303.529 16.7897C306.101 17.7727 308.157 19.1698 309.709 20.9639C311.258 22.7581 312.351 24.9635 312.982 27.5688C313.618 30.1741 313.931 33.1006 313.931 36.334V74.6452H307.278V37.3874C307.278 35.0666 307.064 32.8978 306.642 30.8924C306.216 28.887 305.478 27.1435 304.422 25.6648C303.369 24.1861 301.941 23.0228 300.147 22.1807C298.352 21.3385 296.116 20.9132 293.44 20.9132C290.765 20.9132 288.387 21.3892 286.309 22.3412C284.233 23.2932 282.473 24.5973 281.03 26.2506C279.583 27.904 278.459 29.8784 277.648 32.1683C276.837 34.4582 276.394 36.9396 276.33 39.6153V74.6536H269.674V16.894H276.33H276.332Z" fill="#18191B" stroke="#18191B" stroke-width="0.366156" stroke-miterlimit="10"/>
<path d="M367.001 79.0193C366.119 82.2893 364.731 85.058 362.827 87.3282C360.923 89.5984 358.441 91.3418 355.382 92.5501C352.321 93.7556 348.572 94.3612 344.136 94.3612C341.39 94.3612 338.717 94.0429 336.111 93.4007C333.506 92.7586 331.168 91.7671 329.09 90.418C327.014 89.0688 325.29 87.3423 323.915 85.2496C322.538 83.154 321.747 80.6501 321.535 77.7377H328.191C328.543 79.7938 329.225 81.5176 330.247 82.9062C331.27 84.2947 332.498 85.4101 333.945 86.2579C335.385 87.1085 336.993 87.731 338.748 88.1196C340.508 88.5083 342.302 88.7027 344.136 88.7027C350.327 88.7027 354.802 86.9254 357.548 83.3765C360.294 79.822 361.669 77.3659 361.669 70.6935V63.2351H361.458C359.909 66.646 357.638 69.3781 354.647 71.4398C351.653 73.5016 348.155 74.5268 344.141 74.5268C339.776 74.5268 336.046 73.8001 332.948 72.3412C329.85 70.8878 327.295 68.8768 325.29 66.3221C323.285 63.7675 321.826 60.7622 320.905 57.3203C319.992 53.8756 319.53 47.5439 319.53 43.6373C319.53 39.7307 320.076 36.3086 321.169 32.9287C322.262 29.5572 323.842 26.6055 325.921 24.0874C327.997 21.5638 330.568 19.5809 333.63 18.1219C336.689 16.6686 340.195 15.9362 344.136 15.9362C346.175 15.9362 348.096 16.2207 349.89 16.7869C351.684 17.3586 353.323 18.1557 354.802 19.1866C356.281 20.2175 357.599 21.4061 358.762 22.7552C359.928 24.1043 360.821 25.5239 361.458 27.0167H361.669V15.9391H368.325V70.6906C368.325 74.7381 367.882 75.7408 367.006 79.008L367.001 79.0221V79.0193ZM351.743 67.0291C353.921 65.7841 355.754 64.1562 357.233 62.1254C358.712 60.1031 359.818 57.7738 360.556 55.1459C361.297 52.518 361.663 47.1637 361.663 44.395C361.663 41.6263 361.348 38.9984 360.711 36.3002C360.075 33.6019 359.058 31.1514 357.653 28.9517C356.244 26.7519 354.43 24.9747 352.211 23.6255C349.994 22.2764 347.299 21.6032 344.13 21.6032C340.961 21.6032 338.252 22.2595 335.996 23.5748C333.74 24.8902 331.875 26.6111 330.396 28.7433C328.918 30.8754 327.842 33.3089 327.174 36.041C326.504 38.7787 326.172 41.5672 326.172 44.4006C326.172 47.2341 326.524 52.5237 327.225 55.1515C327.926 57.7794 329.019 60.1059 330.498 62.131C331.977 64.1533 333.841 65.7898 336.097 67.0347C338.348 68.2796 341.023 68.8965 344.122 68.8965C347.009 68.8965 349.544 68.274 351.729 67.0347L351.743 67.0291Z" fill="#18191B" stroke="#18191B" stroke-width="0.366156" stroke-miterlimit="10"/>
</svg>
